<mxfile host="app.diagrams.net" modified="2023-11-23T08:08:21.186Z" agent="Mozilla/5.0 (Windows NT 10.0; Win64; x64) AppleWebKit/537.36 (KHTML, like Gecko) Chrome/119.0.0.0 Safari/537.36" version="22.1.3" etag="Ozjh8Zdu5p6ycodxL5G2" type="github">
  <diagram name="페이지-1" id="sAnjHpz1L-lNh2rCJ3Hm">
    <mxGraphModel>
      <root>
        <mxCell id="0" />
        <mxCell id="1" parent="0" />
      </root>
    </mxGraphModel>
  </diagram>
</mxfile>
